<svg width="2496" height="1896" viewBox="0 0 2496 1896" fill="none" xmlns="http://www.w3.org/2000/svg">
<path d="M765.922 1190.18C766.92 1221.86 772.181 1244.42 782.983 1263.35C826.458 1335.35 992.867 1383.35 1206.93 1385.62C1314 1386.24 1413.97 1373.14 1496.04 1347.71C1567.55 1325.18 1636.02 1289.34 1711.52 1234.92C1763.07 1197.33 1807.82 1154.24 1852.34 1099.29C1897.07 1043.57 1917.66 999.703 1919.1 957.057C1919.14 955.121 1919.12 953.186 1919.06 951.142C1917.53 902.735 1887.87 827.035 1839.7 748.647C1790.74 668.976 1731.5 601.759 1681.23 568.843C1590.9 477.801 1505.82 493.487 1377.03 517.224C1319.91 527.755 1255.16 539.687 1176.64 545.412C1119.98 549.536 1069.37 552.727 1024.72 555.542C810.276 569.055 712.403 575.219 606.258 644.333C581.645 661.103 569.577 682.717 570.391 708.561C571.032 728.933 579.671 752.11 596.07 777.452C611.1 800.435 629.705 824.032 649.404 849.014C675.315 881.872 702.108 915.846 724.692 953.201C751.226 997.674 764.995 1046.96 766.788 1103.87C767.054 1112.32 767.063 1121.19 766.817 1130.23C766.703 1134.3 766.578 1138.33 766.457 1142.32C765.934 1159.09 765.442 1174.93 765.922 1190.18ZM1920.26 951.092C1920.32 953.146 1920.34 955.092 1920.31 957.043C1918.86 999.849 1898.22 1043.84 1853.38 1099.7C1808.8 1154.72 1763.99 1197.88 1712.36 1235.52C1636.74 1290.03 1568.15 1325.93 1496.49 1348.51C1414.26 1373.98 1314.11 1387.11 1206.87 1386.49C992.35 1384.21 825.527 1336.02 781.87 1263.71C771.005 1244.68 765.718 1222.02 764.717 1190.23C764.236 1174.96 764.728 1159.12 765.25 1142.34C765.377 1138.34 765.502 1134.31 765.613 1130.25C765.857 1121.22 765.848 1112.36 765.583 1103.92C763.793 1047.12 750.056 997.938 723.585 953.564C701.023 916.257 674.249 882.303 648.352 849.461C628.639 824.466 610.023 800.858 594.977 777.844C578.507 752.392 569.831 729.1 569.185 708.611C568.363 682.505 580.565 660.67 605.457 643.707C657.071 610.099 707.36 590.542 773.627 578.316C837.966 566.441 916.274 561.507 1024.65 554.676C1069.31 551.862 1119.91 548.674 1176.57 544.546C1254.98 538.832 1319.69 526.904 1376.78 516.383C1443.25 504.131 1495.75 494.45 1544.41 499C1597.03 503.914 1639.5 525.275 1682.14 568.261C1732.44 601.179 1791.79 668.501 1840.81 748.273C1889.03 826.759 1918.73 902.579 1920.26 951.092Z" fill="#3B82F6"/>
<path d="M1906.04 952.174C1906.04 951.025 1906.02 949.886 1905.98 948.714C1904.53 902.467 1875.62 829.571 1828.64 753.728C1780.84 676.541 1723 611.184 1673.91 578.893C1585.83 490.493 1502.8 504.692 1377.12 526.189C1322.77 535.482 1261.17 546.016 1186.96 550.878C1132.87 554.519 1084.42 557.304 1041.67 559.763C834.301 571.686 739.656 577.129 636.279 643.275C609.557 660.679 596.45 683.62 597.327 711.47C597.915 730.147 604.812 751.145 617.827 773.877C631.967 801.992 651.499 831.172 672.18 862.063C691.613 891.088 711.708 921.107 729.44 953.273C765.499 1020.07 772.22 1085.71 774.139 1129.27L774.235 1136.97C774.355 1146.3 774.466 1155.13 774.742 1163.9C775.917 1201.21 780.063 1231.42 796.485 1257.57C840.453 1326.68 1001.75 1373.71 1207.4 1377.39C1312.64 1379.68 1410.47 1368.44 1490.31 1344.91C1561.09 1323.81 1628.67 1289.35 1702.96 1236.48C1757.36 1197.93 1803.12 1153.41 1846.96 1096.37C1889.22 1040.82 1907.44 996.492 1906.06 952.654L1906.04 952.174ZM1907.19 948.664C1907.23 949.841 1907.25 950.986 1907.24 952.132L1907.26 952.604C1908.65 996.605 1890.38 1041.07 1848.01 1096.77C1804.11 1153.89 1758.28 1198.48 1703.8 1237.08C1629.38 1290.04 1561.68 1324.56 1490.74 1345.71C1410.74 1369.29 1312.73 1380.55 1207.32 1378.26C1001.23 1374.57 839.535 1327.35 795.381 1257.95C778.882 1231.67 774.712 1201.36 773.534 1163.95C773.258 1155.17 773.149 1146.35 773.029 1137L772.93 1129.32C771.015 1085.83 764.307 1020.28 728.319 953.615C710.598 921.479 690.515 891.475 671.092 862.459C650.397 831.551 630.852 802.354 616.704 774.219C603.642 751.404 596.716 730.305 596.124 711.52C595.239 683.406 608.481 660.228 635.495 642.644C739.187 576.288 833.962 570.838 1041.62 558.898C1084.36 556.439 1132.81 553.655 1186.9 550.015C1261.02 545.16 1322.58 534.631 1376.88 525.344C1441.75 514.249 1492.99 505.486 1540.48 510.353C1591.81 515.612 1633.24 536.574 1674.82 578.308C1723.94 610.606 1781.89 676.072 1829.75 753.35C1876.78 829.292 1905.73 902.309 1907.19 948.664Z" fill="#3B82F6"/>
<path d="M624.319 714.659C624.848 731.483 630.131 750.143 640.011 770.118C652.355 804.537 672.733 840.706 694.308 878.999C707.772 902.898 721.696 927.611 734.56 953.437C765.376 1017.15 775.733 1077.78 781.801 1128.68L781.978 1131.67C784.719 1178.28 787.088 1218.54 810.319 1252.37C854.756 1318.7 1010.82 1364.85 1207.94 1369.96C1312.76 1373.99 1405.79 1364.88 1484.45 1342.88C1553.48 1323.47 1622.06 1289.38 1694.12 1238.65C1750.56 1199.65 1798.66 1152.3 1841.17 1093.88C1881.05 1038.47 1897.21 992.392 1892.55 947.496L1892.52 946.487C1891.13 902.334 1862.98 832.134 1817.22 758.712C1770.59 683.89 1714.17 620.277 1666.28 588.54C1580.49 502.618 1499.54 515.334 1377.01 534.583C1325.51 542.672 1267.14 551.838 1197.31 555.863C1145.88 559.015 1099.68 561.394 1058.92 563.496C858.663 573.821 767.263 578.532 666.695 641.835C637.628 659.946 623.368 684.448 624.319 714.659ZM1894.45 957.805C1895.76 999.581 1879.17 1042.94 1842.24 1094.26C1799.66 1152.77 1751.48 1200.2 1694.95 1239.26C1622.77 1290.08 1554.05 1324.23 1484.86 1343.68C1406.03 1365.74 1312.82 1374.87 1207.84 1370.82C1110.62 1368.3 1021.81 1355.89 951.019 1334.93C880.226 1313.97 831.196 1285.56 809.235 1252.78C785.895 1218.79 783.523 1178.45 780.774 1131.74L780.6 1128.77C774.539 1077.94 764.195 1017.37 733.424 953.75C720.568 927.95 706.65 903.241 693.186 879.347C671.599 841.029 651.205 804.832 638.86 770.399C628.95 750.37 623.647 731.626 623.114 714.71C622.155 684.216 636.558 659.481 665.924 641.189C766.805 577.69 858.335 572.972 1058.88 562.636C1099.64 560.532 1145.83 558.153 1197.25 554.998C1267 550.98 1325.33 541.822 1376.79 533.733C1440.03 523.801 1489.98 515.955 1536.27 521.163C1586.32 526.789 1626.69 547.39 1667.19 587.956C1715.11 619.7 1771.64 683.416 1818.32 758.338C1864.14 831.856 1892.33 902.176 1893.72 946.437L1893.75 947.426C1894.1 950.847 1894.34 954.347 1894.45 957.805Z" fill="#3B82F6"/>
<path d="M651.324 718.958C651.786 733.642 655.597 749.696 662.653 766.665C671.992 808.727 693.232 853.548 715.719 901.003C723.784 918.016 732.122 935.609 740.141 953.557C768.304 1019.03 780.789 1081.85 789.909 1127.71C794.617 1171.35 799.056 1212.55 824.582 1246.56C846.692 1277.8 894.329 1305.1 962.351 1325.51C1030.51 1345.95 1115.75 1358.45 1208.85 1361.66C1311.75 1367.42 1402.62 1360.14 1478.95 1340.01C1547.18 1322.06 1614.78 1289.4 1685.63 1240.17C1744.85 1200.26 1793.94 1151.47 1835.71 1090.99C1868.17 1043.45 1882.7 1002.83 1881.46 963.163C1881.24 956.363 1880.55 949.478 1879.38 942.701C1877.46 900.356 1849.84 833.133 1805.48 762.828C1759.5 689.947 1706.12 630.144 1659.03 598.755C1575.5 515.452 1496.61 526.646 1377.19 543.591C1328.58 550.489 1273.48 558.307 1208.05 561.508C1159.39 564.172 1115.52 566.146 1076.8 567.892C883.551 576.597 795.348 580.569 697.564 640.937C665.841 659.793 650.288 686.044 651.324 718.958ZM1882.66 963.113C1883.91 1002.93 1869.34 1043.67 1836.8 1091.35C1794.95 1151.93 1745.77 1200.81 1686.44 1240.79C1615.47 1290.1 1547.72 1322.82 1479.33 1340.82C1402.83 1360.99 1311.79 1368.29 1208.74 1362.53C1115.51 1359.31 1030.14 1346.79 961.854 1326.3C893.577 1305.82 845.742 1278.39 823.513 1246.99C797.875 1212.82 793.426 1171.54 788.713 1127.84C779.605 1082.03 767.121 1019.25 738.992 953.843C730.978 935.909 722.641 918.319 714.578 901.306C692.075 853.819 670.82 808.961 661.481 766.888C654.414 749.896 650.585 733.77 650.12 719.008C649.076 685.81 664.782 659.321 696.806 640.282C794.904 579.727 883.236 575.745 1076.77 567.027C1115.48 565.284 1159.35 563.309 1208.01 560.647C1273.37 557.446 1328.42 549.634 1377 542.743C1438.63 534 1487.31 527.09 1532.41 532.634C1581.18 538.627 1620.51 558.842 1659.93 598.17C1707.06 629.571 1760.54 689.474 1806.58 762.451C1850.99 832.843 1878.65 900.195 1880.58 942.604C1881.74 949.37 1882.45 956.283 1882.66 963.113Z" fill="#3B82F6"/>
<path d="M676.281 723.825C676.666 736.072 679.191 749.246 683.786 762.994C688.532 814.552 710.921 870.321 734.625 929.353C737.845 937.37 741.093 945.455 744.331 953.622C763.172 1003.43 775.827 1050.21 786.991 1091.49C790.346 1103.91 793.522 1115.63 796.697 1126.85C803.987 1172.14 811.616 1209.28 837.571 1240.98C859.984 1270.9 906.511 1297.24 972.122 1317.18C1037.89 1337.17 1119.83 1349.8 1209.07 1353.7C1310.21 1361.2 1399.05 1355.73 1473.16 1337.44C1540.65 1320.94 1607.38 1289.68 1677.14 1241.88C1738.4 1201.6 1789.98 1149.88 1830.49 1088.16C1859.09 1044.05 1871.86 1006 1870.67 968.433C1870.35 958.272 1868.95 947.974 1866.52 937.822C1863.66 897.047 1836.36 832.809 1793.47 765.937C1748.86 696.383 1697.21 639.01 1651.75 608.536C1570.33 527.747 1493.35 537.409 1376.81 552.042C1331.05 557.788 1279.2 564.298 1218.11 566.71C1172.23 568.884 1130.69 570.465 1094.04 571.852C907.37 578.939 822.179 582.174 726.973 639.683C692.195 659.394 675.145 687.699 676.281 723.825ZM1871.88 968.383C1873.07 1006.09 1860.26 1044.26 1831.57 1088.5C1791 1150.34 1739.31 1202.15 1677.95 1242.5C1608.06 1290.39 1541.18 1321.71 1473.51 1338.25C1399.23 1356.58 1310.22 1362.07 1208.94 1354.57C1119.58 1350.66 1037.51 1338.01 971.622 1317.98C905.764 1297.97 859.044 1271.49 836.52 1241.42C810.459 1209.6 802.804 1172.37 795.509 1127.01C792.341 1115.83 789.165 1104.1 785.806 1091.68C774.648 1050.42 761.997 1003.65 743.169 953.881C739.932 945.723 736.686 937.636 733.469 929.623C709.746 870.543 687.339 814.734 682.601 763.151C677.998 749.422 675.463 736.181 675.076 723.876C673.931 687.456 691.143 658.909 726.233 639.021C821.742 581.323 907.065 578.087 1094.01 570.994C1130.67 569.6 1172.2 568.026 1218.07 565.847C1279.1 563.434 1330.92 556.932 1376.64 551.188C1436.79 543.638 1484.29 537.676 1528.3 543.576C1575.88 549.955 1614.24 569.806 1652.66 607.953C1698.15 638.442 1749.9 695.902 1794.57 765.551C1837.51 832.517 1864.86 896.869 1867.72 937.698C1870.16 947.839 1871.56 958.181 1871.88 968.383Z" fill="#3B82F6"/>
<path d="M706.647 774.58C708.357 828.979 727.358 887.8 750.144 953.515C758.95 980.44 766.707 1006.01 774.206 1030.74C784.713 1065.39 794.643 1098.12 805.01 1125.97C813.978 1167.06 823.697 1203.63 852.011 1235.48C874.684 1264.1 920.002 1289.53 983.08 1309.03C1046.33 1328.59 1124.79 1341.36 1210 1345.97C1309.16 1355.25 1395.79 1351.59 1467.53 1335.11C1534.14 1320.07 1599.84 1290.19 1668.39 1243.78C1732.38 1202.55 1784.96 1149.27 1824.68 1085.4C1849.46 1045.04 1860.97 1008.44 1859.88 973.514C1859.45 960.069 1857.14 946.404 1852.99 932.897C1845.3 853.444 1740.68 683.24 1644.21 617.969C1565.03 539.581 1490.05 547.689 1376.56 559.959C1333.8 564.587 1285.34 569.826 1228.77 571.472C1185.88 573.166 1146.84 574.34 1112.4 575.381C932.55 580.803 850.465 583.275 757.996 638.004C719.795 658.663 701.076 689.399 702.332 729.357C702.628 738.774 704.078 748.742 706.635 758.985C706.482 764.108 706.482 769.328 706.647 774.58ZM1861.08 973.464C1862.18 1008.52 1850.63 1045.24 1825.77 1085.73C1785.98 1149.71 1733.3 1203.1 1669.19 1244.41C1600.51 1290.91 1534.65 1320.85 1467.86 1335.93C1395.95 1352.46 1309.14 1356.12 1209.84 1346.83C1124.53 1342.21 1045.94 1329.42 982.571 1309.83C919.265 1290.25 873.759 1264.71 850.974 1235.95C822.556 1203.98 812.811 1167.32 803.833 1126.17C793.472 1098.35 783.544 1065.61 773.029 1030.95C765.53 1006.22 757.774 980.66 748.973 953.748C726.176 887.988 707.16 829.117 705.447 774.63C705.282 769.367 705.281 764.134 705.444 759.08C702.881 748.88 701.43 738.866 701.132 729.407C699.867 689.143 718.752 658.165 757.272 637.329C802.06 610.822 845.699 595.865 903.172 587.333C958.176 579.164 1022.86 577.211 1112.39 574.514C1146.83 573.476 1185.87 572.299 1228.75 570.609C1285.27 568.959 1333.69 563.725 1376.42 559.105C1435 552.774 1481.26 547.768 1524.1 554.05C1570.42 560.845 1607.74 580.377 1645.12 617.383C1688.89 646.991 1738.81 702.071 1782.01 768.457C1823.4 832.046 1850.38 893.464 1854.18 932.746C1858.33 946.243 1860.66 959.961 1861.08 973.464Z" fill="#3B82F6"/>
<path d="M725.303 804.223C726.907 855.263 740.958 908.457 754.491 953.759C771.405 1014.53 789.768 1077.82 811.924 1125.19C824.129 1168.52 837.271 1201.13 865.112 1229.93C912.135 1285.78 1044.36 1327.18 1210.19 1337.99C1307.55 1349.04 1392.12 1347.2 1461.59 1332.51C1527.42 1318.97 1592.21 1290.5 1659.68 1245.51C1725.58 1203.97 1780.73 1147.67 1819.16 1082.68C1840.99 1045.27 1851.11 1011.16 1850.08 978.42C1849.55 961.625 1846.2 945.201 1839.83 928.211C1835.08 890.549 1808.47 832.263 1768.64 772.218C1726.88 709.283 1678.8 656.751 1636.72 628.09C1559.59 552.181 1486.44 558.697 1375.72 568.558C1335.95 572.104 1290.88 576.121 1238.78 577.046C1198.93 578.265 1162.43 579.052 1130.22 579.74C961.975 583.372 877.524 585.193 787.56 637.103C745.952 658.501 724.704 692.973 726.081 736.799C726.272 742.879 726.897 749.2 727.944 755.598C725.657 770.879 724.769 787.206 725.303 804.223ZM1851.28 978.37C1852.32 1011.24 1842.17 1045.46 1820.27 1082.99C1781.76 1148.11 1726.5 1204.53 1660.47 1246.14C1592.87 1291.23 1527.9 1319.76 1461.89 1333.34C1392.24 1348.07 1307.5 1349.92 1210 1338.84C1043.84 1328.01 911.287 1286.47 864.095 1230.42C833.138 1198.4 820.775 1161 810.767 1125.44C788.608 1078.07 770.233 1014.75 753.311 953.961C739.77 908.627 725.707 855.388 724.1 804.273C723.565 787.223 724.457 770.855 726.751 755.633C725.698 749.305 725.068 742.959 724.876 736.849C723.489 692.712 744.921 657.985 786.856 636.42C877.121 584.34 961.709 582.515 1130.23 578.88C1162.43 578.186 1198.93 577.398 1238.78 576.179C1290.83 575.258 1335.88 571.244 1375.61 567.704C1432.76 562.612 1477.9 558.59 1519.67 565.259C1564.84 572.47 1601.22 591.669 1637.63 627.51C1679.75 656.18 1727.92 708.803 1769.73 771.824C1809.61 831.951 1836.27 890.345 1841.01 928.03C1847.39 945.015 1850.75 961.505 1851.28 978.37Z" fill="#3B82F6"/>
<path d="M740.732 836.497C741.809 870.803 747.805 909.247 759.066 954.019C776.066 1027.71 795.696 1083.49 819.08 1124.57C832.843 1163.79 848.194 1195.78 878.464 1224.63C925.992 1277.66 1053.27 1318.16 1210.65 1330.35C1306.21 1343.22 1388.72 1343.19 1455.93 1330.26C1520.95 1318.21 1584.84 1291.14 1651.25 1247.51C1738.09 1193.89 1787.65 1126.89 1813.94 1080.11C1833.2 1045.37 1842.1 1013.58 1841.14 982.921C1840.51 963.149 1835.87 943.733 1826.95 923.564C1815.32 850.038 1717.49 698.401 1629.5 637.999C1554.35 564.45 1482.96 569.341 1374.9 576.747C1338.2 579.262 1296.6 582.113 1249.04 582.356C1212.36 583.114 1178.52 583.523 1148.67 583.882C986.369 585.834 904.901 586.815 817.363 635.978C771.175 658.555 747.592 696.456 749.137 745.603C749.204 747.736 749.322 749.919 749.483 752.092C742.624 778.144 739.765 805.722 740.732 836.497ZM1842.34 982.871C1843.31 1013.65 1834.38 1045.55 1815.05 1080.41C1788.71 1127.28 1739.04 1194.42 1652.02 1248.15C1585.48 1291.87 1521.42 1319.01 1456.2 1331.09C1388.81 1344.06 1306.12 1344.1 1210.43 1331.2C1052.75 1319 925.154 1278.35 877.47 1225.14C847.109 1196.21 831.711 1164.13 817.936 1124.86C794.547 1083.78 774.895 1027.94 757.882 954.2C746.613 909.388 740.608 870.901 739.528 836.547C738.559 805.708 741.427 778.074 748.291 752.062C748.119 749.989 748.001 747.796 747.933 745.653C746.379 696.191 770.151 658.025 816.677 635.29C904.513 585.956 986.116 584.972 1148.69 583.015C1178.54 582.655 1212.37 582.251 1249.06 581.497C1296.58 581.248 1338.15 578.4 1374.82 575.886C1483.29 568.454 1554.94 563.547 1630.41 637.418C1718.5 697.873 1816.49 849.776 1828.13 923.359C1837.05 943.521 1841.72 963.016 1842.34 982.871Z" fill="#3B82F6"/>
<path d="M754.098 868.341C754.943 895.234 758.419 923.284 764.723 954.081C777.708 1024.62 798.736 1081.75 827.227 1123.9C840.639 1155.35 857.831 1188.64 892.717 1219.37C940.679 1269.65 1062.82 1309.31 1211.5 1322.88C1306.44 1337.82 1384.53 1339.56 1450.29 1328.2C1514.4 1317.66 1577.27 1291.96 1642.53 1249.65C1712.98 1206.9 1771.79 1145.79 1808.15 1077.56C1825.16 1045.22 1832.99 1015.53 1832.08 986.815C1831.37 964.25 1825.3 942.001 1813.5 918.793C1799.89 848.319 1707 706.525 1621.97 647.517C1548.85 576.195 1479.23 579.41 1373.84 584.277C1340.37 585.823 1302.43 587.575 1259.58 587.19C1226.28 587.5 1195.31 587.547 1167.98 587.581C1011.65 587.783 933.176 587.886 848.105 634.382C786.357 663.08 772.689 712.112 772.083 748.194L772.063 748.304C758.578 784.614 752.701 823.88 754.098 868.341ZM1833.28 986.765C1834.19 1015.6 1826.34 1045.39 1809.28 1077.84C1772.83 1146.21 1713.9 1207.46 1643.3 1250.3C1577.89 1292.71 1514.84 1318.47 1450.53 1329.04C1384.6 1340.43 1306.32 1338.7 1211.26 1323.73C1062.31 1310.14 939.863 1270.35 891.746 1219.91C856.767 1189.09 839.525 1155.71 826.11 1124.24C797.597 1082.07 776.53 1024.85 763.533 954.233C757.223 923.405 753.745 895.327 752.899 868.391C751.5 823.865 757.383 784.537 770.883 748.159C771.502 711.863 785.296 662.562 847.437 633.677C932.804 587.023 1011.41 586.92 1168.02 586.714C1195.34 586.678 1226.31 586.639 1259.62 586.323C1302.44 586.712 1340.35 584.959 1373.81 583.411C1479.58 578.532 1549.45 575.304 1622.88 646.937C1708 706 1801.05 848.045 1814.66 918.557C1826.47 941.765 1832.57 964.107 1833.28 986.765Z" fill="#3B82F6"/>
<path d="M763.175 897.508C763.752 915.876 765.621 935.05 768.723 954.502C778.305 1023.34 800.819 1081.74 833.827 1123.4C853.772 1162.39 875.211 1189.52 905.549 1214.17C929.42 1237.54 970.174 1259.21 1023.44 1276.87C1077.03 1294.63 1142.09 1307.92 1211.6 1315.3C1304.77 1332.14 1380.9 1335.64 1444.4 1326C1507.69 1316.98 1569.7 1292.69 1633.96 1251.72C1707.26 1208.09 1767.24 1145.36 1802.87 1075.09C1817.95 1044.94 1824.87 1017.22 1824.03 990.336C1823.24 965.2 1815.57 940.323 1800.58 914.279C1784.77 846.225 1695.88 714.488 1614.6 657.625C1543.26 588.536 1475.14 590.018 1372.04 592.263C1341.85 592.919 1307.63 593.666 1269.52 592.728C1239.73 592.63 1212.94 592.345 1187.04 592.068C1036.06 590.465 960.286 589.659 877.374 633.488C814.851 661.008 797.012 709.259 793.047 744.89L793.017 745C771.462 790.349 761.421 841.66 763.175 897.508ZM1825.23 990.286C1826.08 1017.28 1819.14 1045.11 1804 1075.36C1768.3 1145.78 1708.18 1208.64 1634.73 1252.37C1570.31 1293.43 1508.11 1317.8 1444.6 1326.85C1380.92 1336.51 1304.62 1333.02 1211.32 1316.15C1141.76 1308.76 1076.59 1295.45 1022.91 1277.65C969.466 1259.94 928.558 1238.18 904.603 1214.72C874.197 1190.02 852.693 1162.82 832.736 1123.79C799.688 1082.09 777.126 1023.57 767.526 954.624C764.423 935.155 762.553 915.952 761.976 897.558C760.219 841.63 770.272 790.234 791.853 744.796C795.853 708.964 813.827 660.463 876.729 632.779C959.935 588.792 1035.85 589.597 1187.1 591.203C1213 591.48 1239.78 591.766 1269.59 591.865C1307.68 592.801 1341.87 592.055 1372.05 591.397C1475.52 589.145 1543.87 587.658 1615.51 657.044C1652.65 683.014 1695.53 728.422 1733.12 781.57C1768.42 831.481 1794.07 880.994 1801.73 914.02C1816.74 940.066 1824.44 965.043 1825.23 990.286Z" fill="#3B82F6"/>
<path d="M771.046 921.326C771.388 932.208 772.209 943.341 773.481 954.417C780.049 1023.21 803.439 1081.32 841.123 1122.47C862.36 1157.54 886.365 1184.08 919.004 1208.57C968.747 1253.99 1078.26 1290.93 1211.98 1307.41C1303.28 1326.19 1377.36 1331.45 1438.52 1323.49C1500.92 1316.02 1561.98 1293.11 1625.19 1253.46C1701.28 1208.94 1762.36 1144.58 1797.21 1072.23C1810.59 1044.06 1816.71 1018.11 1815.92 992.894C1815.06 965.356 1805.68 938.017 1787.26 909.309C1769.59 845.138 1682.98 720.852 1607.04 667.146C1537.41 600.144 1470.71 599.81 1369.76 599.316C1343.06 599.183 1312.81 599.037 1279.64 597.628C1253.61 597.168 1229.93 596.592 1207.03 596.034C1065.85 592.611 988.089 590.724 907.28 631.958C844.085 658.291 822.078 705.784 814.74 740.994C783.675 795.124 768.987 855.762 771.046 921.326ZM1817.13 992.844C1817.92 1018.16 1811.78 1044.21 1798.34 1072.49C1763.42 1145 1702.2 1209.5 1625.95 1254.11C1562.57 1293.87 1501.31 1316.85 1438.69 1324.35C1377.35 1332.32 1303.09 1327.06 1211.67 1308.25C1077.74 1291.75 967.96 1254.7 918.086 1209.15C885.383 1184.62 861.311 1158.01 840.062 1122.9C802.317 1081.69 778.863 1023.44 772.283 954.516C771.008 943.423 770.186 932.27 769.844 921.376C767.781 855.69 782.499 794.936 813.589 740.79C820.933 705.491 843.076 657.727 906.656 631.236C987.761 589.851 1065.67 591.74 1207.11 595.17C1230.01 595.726 1253.69 596.301 1279.74 596.768C1312.89 598.175 1343.12 598.321 1369.81 598.45C1471.11 598.95 1538.03 599.281 1607.95 666.566C1643.93 692.007 1684 733.903 1720.7 784.495C1754.43 830.988 1779.73 877.541 1788.39 909.021C1806.85 937.739 1816.26 965.187 1817.13 992.844Z" fill="#3B82F6"/>
<path d="M777.725 940.848C777.871 945.506 778.116 950.232 778.448 954.893C782.104 1023.93 806.354 1081.71 848.584 1121.98C870.744 1153.15 897.418 1178.99 932.578 1203.36C982.827 1245.99 1087.4 1282.04 1212.34 1299.81C1302.97 1320.84 1372.91 1327.66 1432.51 1321.27C1493.98 1315.37 1554.06 1293.86 1616.2 1255.53C1693.89 1210.82 1757.68 1143.14 1791.22 1069.84C1803.13 1043.47 1808.55 1019.15 1807.81 995.477C1806.86 965.299 1796 936.528 1773.63 904.929C1754.02 844.303 1671.89 729.371 1599.26 677.435C1531.19 612.404 1465.72 610.167 1366.62 606.78C1343.68 605.994 1317.68 605.104 1289.7 603.354C1267.73 602.592 1247.44 601.786 1227.83 601.001C1091.35 595.555 1016.17 592.551 937.294 631.23C873.51 656.34 847.334 703.052 836.596 737.82C795.809 798.797 775.468 868.977 777.725 940.848ZM1809.01 995.427C1809.76 1019.2 1804.31 1043.62 1792.36 1070.09C1758.75 1143.55 1694.8 1211.38 1616.94 1256.19C1554.63 1294.62 1494.34 1316.2 1432.64 1322.13C1372.86 1328.54 1302.74 1321.71 1212 1300.65C1086.88 1282.85 982.061 1246.7 931.69 1203.97C896.474 1179.56 869.731 1153.65 847.565 1122.46C805.247 1082.11 780.912 1024.17 777.248 954.964C776.915 950.3 776.673 945.566 776.526 940.898C774.265 868.885 794.646 798.576 835.474 737.567C846.217 702.71 872.548 655.748 936.693 630.495C1015.87 591.675 1091.19 594.679 1227.94 600.138C1247.55 600.922 1267.83 601.733 1289.82 602.49C1317.8 604.241 1343.79 605.131 1366.71 605.916C1417.94 607.667 1458.4 609.048 1495.61 618.188C1535.79 628.056 1568.04 646.147 1600.18 676.853C1634.45 701.357 1672.76 740.877 1708.01 788.097C1740.13 831.14 1765.08 874.694 1774.76 904.607C1797.16 936.23 1808.06 965.117 1809.01 995.427Z" fill="#3B82F6"/>
<path d="M782.346 960.74C784.448 1027.69 809.562 1083.19 854.98 1121.24C878.289 1149.29 906.108 1172.92 945.237 1197.94C996.132 1237.83 1095.95 1273 1212.31 1292.04C1301.15 1315.1 1369.2 1323.62 1426.51 1318.86C1486.29 1314.58 1547.19 1293.89 1607.55 1257.37C1688.11 1211.79 1753.12 1142.46 1785.91 1067.13C1796.55 1042.38 1801.37 1019.52 1800.68 997.239C1799.66 964.93 1786.95 934.078 1760.66 900.154C1738.31 841.055 1661.38 737.494 1591.82 687.22C1524.93 623.915 1463.71 619.866 1362.27 613.156C1342.49 611.845 1322.04 610.492 1299.53 608.568C1281.91 607.619 1265.36 606.656 1249.36 605.734C1116.8 598.044 1043.79 593.81 966.431 630.032C901.987 653.924 871.565 699.885 857.377 734.238C805.994 801.752 780.025 878.081 782.222 955.057C782.248 956.967 782.287 958.856 782.346 960.74ZM1801.88 997.189C1802.59 1019.56 1797.74 1042.52 1787.06 1067.36C1754.19 1142.86 1689.03 1212.35 1608.29 1258.03C1547.75 1294.66 1486.62 1315.42 1426.6 1319.72C1369.11 1324.49 1300.89 1315.96 1211.93 1292.87C1095.43 1273.81 995.384 1238.55 944.38 1198.56C905.2 1173.52 877.313 1149.83 853.997 1121.76C808.462 1083.62 783.249 1027.94 781.141 960.791C781.082 958.903 781.043 957.011 781.022 955.1C778.818 877.976 804.842 801.495 856.278 733.931C870.483 699.494 901.07 653.307 965.852 629.292C1043.51 592.926 1116.68 597.171 1249.5 604.868C1265.5 605.799 1282.05 606.757 1299.69 607.708C1322.2 609.635 1342.65 610.983 1362.42 612.294C1413.1 615.647 1453.13 618.297 1489.83 628.113C1529.41 638.695 1561.15 656.745 1592.74 686.643C1625.36 710.215 1662 747.38 1695.85 791.25C1726.41 830.85 1751.05 871.434 1761.77 899.807C1788.1 933.761 1800.86 964.737 1801.88 997.189Z" fill="#3B82F6"/>
<path d="M786.653 970.179C788.641 1033.48 814.683 1085.49 861.96 1120.58C885.526 1144.97 915.256 1167.19 958.418 1192.68C1010 1229.94 1104.98 1264.28 1212.55 1284.55C1300.73 1310.06 1364.87 1320 1420.6 1316.79C1479.48 1314.07 1539.43 1294.79 1598.83 1259.49C1682.19 1213.01 1748.36 1141.95 1780.36 1064.5C1789.87 1041.2 1794.17 1019.65 1793.51 998.612C1792.43 964.235 1777.8 931.398 1747.45 895.272C1723.2 840.072 1650.26 744.986 1584.27 696.651C1518.22 634.658 1457.27 628.479 1356.31 618.236C1341.42 616.722 1326.02 615.165 1309.53 613.314C1296.74 612.328 1284.43 611.347 1272.6 610.406C1143.38 600.117 1072.21 594.452 996.046 628.359C931.067 651.037 896.392 696.3 878.736 730.276C819.501 800.123 787.675 877.832 786.639 955.093C786.492 960.158 786.498 965.234 786.653 970.179ZM1794.72 998.562C1795.38 1019.69 1791.06 1041.33 1781.51 1064.72C1749.43 1142.34 1683.11 1213.57 1599.56 1260.16C1539.98 1295.57 1479.77 1314.92 1420.65 1317.65C1364.73 1320.87 1300.43 1310.92 1212.14 1285.37C1104.45 1265.08 1009.27 1230.66 957.595 1193.32C914.389 1167.81 884.595 1145.54 861.026 1121.14C813.6 1085.95 787.448 1033.75 785.454 970.229C785.298 965.271 785.291 960.184 785.438 955.106C786.472 877.699 818.365 799.827 877.666 729.925C895.349 695.865 930.198 650.397 995.498 627.606C1071.96 593.556 1143.29 599.236 1272.77 609.545C1284.61 610.486 1296.91 611.467 1309.73 612.456C1326.24 614.31 1341.63 615.871 1356.52 617.378C1407.05 622.508 1446.96 626.552 1483.37 637.179C1522.59 648.631 1554 666.792 1585.19 696.075C1651.24 744.451 1724.31 839.696 1748.55 894.896C1778.94 931.062 1793.63 964.032 1794.72 998.562Z" fill="#3B82F6"/>
<path d="M790.891 977.551C792.792 1038.11 819.858 1087.32 869.169 1119.87C896.74 1144.44 930.119 1164.58 971.778 1187.27C1024.95 1222.47 1112.8 1255.1 1212.86 1276.81C1270.95 1295.45 1346.31 1316.54 1414.66 1314.43C1472.59 1313.28 1531.58 1295.44 1589.99 1261.38C1674.87 1214.75 1743.89 1140.17 1774.62 1061.86C1783.14 1039.9 1786.98 1019.56 1786.35 999.689C1785.2 962.873 1769.08 929.216 1734.07 890.564C1707.49 838.383 1637.92 752.015 1576.64 706.498C1510.8 645.331 1449.34 636.743 1347.51 622.511C1338.51 621.249 1329.2 619.951 1319.56 618.57C1312.21 617.799 1305 617.032 1297.95 616.292C1175.33 603.32 1101.31 595.494 1025.83 627.187C960.409 648.619 921.473 693.133 900.319 726.708C834.178 797.644 795.489 878.793 791.32 955.266C790.807 962.798 790.663 970.296 790.891 977.551ZM1787.56 999.639C1788.18 1019.6 1784.33 1040.02 1775.78 1062.06C1761.37 1098.78 1737.97 1135.83 1708.1 1169.21C1675 1206.21 1635.52 1237.44 1590.72 1262.05C1532.1 1296.23 1472.86 1314.14 1414.67 1315.29C1346.07 1317.41 1270.54 1296.28 1212.41 1277.62C1112.26 1255.89 1024.24 1223.2 970.99 1187.94C929.305 1165.24 895.865 1145.06 868.283 1120.47C818.794 1087.81 791.598 1038.39 789.689 977.601C789.461 970.327 789.606 962.807 790.118 955.258C792.195 917.126 802.548 878.16 820.892 839.447C839.475 800.219 865.85 762.156 899.277 726.309C920.467 692.66 959.59 647.95 1025.31 626.425C1101.11 594.593 1175.28 602.437 1298.17 615.432C1305.21 616.183 1312.42 616.943 1319.8 617.716C1329.47 619.105 1338.78 620.402 1347.77 621.661C1449.87 635.929 1511.5 644.541 1577.56 705.92C1638.9 751.483 1708.58 837.98 1735.15 890.158C1770.21 928.867 1786.39 962.656 1787.56 999.639Z" fill="#3B82F6"/>
<path d="M795.105 983.794C796.94 1042.25 825.104 1089.18 876.549 1119.49C907.095 1142.95 945.063 1162.03 985.262 1182.22C1039.55 1214.96 1122.62 1246.74 1213.23 1269.44C1273.5 1290.8 1343.8 1312.6 1408.7 1312.43C1465.64 1312.87 1523.64 1296.45 1581.07 1263.63C1668.65 1216.17 1738.79 1139.89 1768.71 1059.57C1776.35 1038.84 1779.77 1019.62 1779.18 1000.81C1777.96 962.096 1759.88 926.75 1720.55 886.206C1691.72 837.352 1627.15 760.625 1568.91 716.674C1502.15 655.337 1438.63 643.859 1333.38 624.84L1329.56 624.149L1326.44 623.715C1204.77 606.841 1131.33 596.652 1055.69 626.346C989.931 646.512 946.714 690.289 922.029 723.464C848.158 796.394 803.49 878.877 796.197 955.772C795.188 965.301 794.82 974.727 795.105 983.794ZM1780.38 1000.76C1780.98 1019.65 1777.54 1038.95 1769.87 1059.77C1739.89 1140.27 1669.57 1216.73 1581.78 1264.31C1524.12 1297.25 1465.88 1313.73 1408.65 1313.29C1343.51 1313.46 1273.06 1291.62 1212.72 1270.23C1122.06 1247.53 1038.86 1215.69 984.509 1182.91C944.302 1162.72 906.286 1143.62 875.713 1120.13C824.053 1089.69 795.747 1042.55 793.904 983.844C793.618 974.749 793.987 965.294 795.002 955.739C802.305 878.682 847.064 796.034 921.022 723.025C945.755 689.776 989.155 645.825 1055.2 625.57C1131.17 595.745 1204.77 605.955 1326.7 622.868L1329.86 623.307L1333.71 624.003C1439.2 643.064 1502.87 654.569 1569.83 716.095C1628.12 760.09 1692.79 836.922 1721.6 885.772C1761.01 926.379 1779.16 961.867 1780.38 1000.76Z" fill="#3B82F6"/>
<path d="M798.21 988.399C799.992 1045.17 829.324 1090.14 883.034 1118.44C910.095 1136.31 942.923 1151.3 977.674 1167.18C984.311 1170.21 991.065 1173.29 997.926 1176.46C1054.13 1207.08 1132.49 1238 1212.95 1261.3C1271.85 1284.27 1340.34 1307.95 1402.25 1309.64C1458.23 1311.67 1515.28 1296.69 1571.8 1265.11C1662.16 1216.83 1733.49 1138.88 1762.6 1056.59C1769.46 1037 1772.53 1018.81 1771.97 1000.99C1770.69 960.449 1750.59 923.515 1706.8 881.237C1675.96 836.213 1615.96 768.579 1560.85 726.309C1496.33 667.862 1434.01 650.652 1339.04 629.246C1229.11 609.37 1157.99 598.528 1084.8 625.034C1018.71 643.931 971.158 686.955 942.889 719.722C861.22 794.534 810.536 878.313 800.13 955.681C798.524 966.87 797.88 977.879 798.21 988.399ZM1773.17 1000.94C1773.73 1018.84 1770.66 1037.1 1763.77 1056.77C1734.58 1139.26 1663.08 1217.39 1572.5 1265.79C1515.75 1297.5 1458.43 1312.55 1402.15 1310.5C1340.01 1308.81 1271.37 1285.08 1212.4 1262.09C1131.92 1238.78 1053.46 1207.82 997.213 1177.18C990.393 1174.03 983.64 1170.94 977.005 1167.91C942.207 1152.02 909.344 1137 882.252 1119.12C856.336 1105.46 835.829 1087.65 821.351 1066.18C806.111 1043.59 797.921 1017.44 797.011 988.449C796.68 977.893 797.329 966.85 798.936 955.625C809.36 878.094 860.14 794.148 941.913 719.244C970.241 686.405 1017.99 643.223 1084.34 624.249C1157.87 597.617 1229.17 608.483 1339.4 628.415C1434.62 649.87 1497.08 667.125 1561.77 725.734C1616.93 768.035 1677.01 835.755 1707.83 880.77C1751.72 923.132 1771.89 960.213 1773.17 1000.94Z" fill="#3B82F6"/>
<path d="M802.405 992.732C804.146 1048.22 834.679 1091.56 890.702 1118.06C915.343 1132.02 944.244 1143.77 974.844 1156.22C986.802 1161.08 999.17 1166.12 1011.74 1171.46C1055.31 1192.75 1125.7 1224.35 1213.77 1254.07C1274.17 1279.95 1338.11 1304.36 1396.85 1307.82C1451.85 1311.47 1507.93 1297.9 1563.52 1267.5C1656.65 1218.34 1729.14 1138.63 1757.43 1054.25C1763.51 1035.94 1766.33 1018.19 1765.8 1001.49C1764.47 959.113 1742.32 920.615 1693.99 876.657C1664 838.947 1609.31 779.555 1553.76 736.107C1492.76 681.633 1434.93 658.321 1349.53 634.351C1246.34 610.057 1181.72 601.741 1115 623.714C1048.7 641.36 996.775 683.684 964.888 716.087C875.45 792.808 818.771 878.003 805.263 956.013C802.996 968.646 802.036 981 802.405 992.732ZM1767 1001.44C1767.53 1018.21 1764.7 1036.04 1758.59 1054.42C1745.47 1093.56 1721.76 1133.37 1690.03 1169.53C1655.54 1208.83 1612.03 1242.95 1564.22 1268.18C1508.38 1298.72 1452.02 1312.35 1396.7 1308.68C1337.73 1305.2 1273.65 1280.75 1213.19 1254.83C1125.09 1225.11 1054.65 1193.49 1011.08 1172.19C998.541 1166.87 986.178 1161.84 974.225 1156.97C943.588 1144.51 914.65 1132.74 889.978 1118.77C862.947 1105.98 841.57 1089.01 826.487 1068.32C810.6 1046.54 802.094 1021.13 801.204 992.782C800.834 981.006 801.8 968.609 804.071 955.936C817.608 877.757 874.387 792.399 963.947 715.575C995.909 683.099 1048.02 640.63 1114.57 622.922C1147.67 612.015 1181.99 608.269 1222.51 611.144C1263.21 614.035 1307.82 623.614 1349.97 633.536C1435.58 657.567 1493.54 680.935 1554.68 735.534C1610.27 779.007 1665.02 838.461 1694.99 876.159C1743.44 920.214 1765.67 958.868 1767 1001.44Z" fill="#3B82F6"/>
<path d="M805.492 996.24C807.198 1050.61 838.956 1092.44 897.335 1117.23C920.182 1128.26 946.367 1137.56 974.088 1147.41C990.43 1153.22 1007.33 1159.23 1024.49 1165.92C1035.89 1170.85 1047.76 1176.04 1060.08 1181.42C1105.93 1201.46 1157.89 1224.17 1213.51 1246.15C1281.57 1278.1 1337.67 1300.37 1390.33 1305.23C1444.32 1310.5 1499.42 1298.37 1554.1 1269.17C1648.54 1219.96 1724.02 1136.56 1751.08 1051.5C1756.54 1034.16 1759.06 1017.32 1758.57 1001.45C1757.16 956.742 1733.67 918.01 1680.03 871.936C1664.3 855.007 1608.23 796.004 1545.53 745.979C1490.28 697.532 1436.23 666.743 1358.92 639.687C1289.83 618.424 1215.97 601.639 1144.11 622.661C1091.53 635.618 1036.81 666.71 985.84 712.588C888.651 791.054 825.989 877.547 809.38 956.14C806.401 970.012 805.092 983.503 805.492 996.24ZM1759.77 1001.4C1760.27 1017.34 1757.74 1034.25 1752.24 1051.66C1739.54 1091.59 1715.73 1132.28 1683.38 1169.34C1648.28 1209.56 1603.81 1244.32 1554.78 1269.86C1499.84 1299.2 1444.44 1311.39 1390.13 1306.09C1337.25 1301.2 1281.03 1278.89 1212.87 1246.9C1157.26 1224.92 1105.29 1202.21 1059.43 1182.17C1047.11 1176.78 1035.24 1171.6 1023.87 1166.67C1006.75 1160 989.861 1154 973.527 1148.19C945.77 1138.32 919.553 1129.01 896.669 1117.96C868.497 1106 846.242 1089.81 830.538 1069.84C813.993 1048.8 805.163 1024.06 804.292 996.291C803.89 983.503 805.203 969.96 808.193 956.038C824.838 877.278 887.607 790.623 984.935 712.047C1036.04 666.053 1090.95 634.854 1143.73 621.854C1175.29 612.62 1208.64 609.917 1245.66 613.613C1277.58 616.795 1313.74 624.828 1359.45 638.9C1436.94 666.021 1491.11 696.872 1546.46 745.404C1609.18 795.453 1665.29 854.499 1680.99 871.404C1734.79 917.596 1758.36 956.485 1759.77 1001.4Z" fill="#3B82F6"/>
<path d="M808.61 999.388C810.264 1052.1 844.192 1093.72 904.143 1116.59C925.607 1125.35 949.787 1132.74 975.391 1140.56C995.586 1146.73 1016.48 1153.12 1037.54 1160.63C1088.18 1179.8 1143.07 1205.51 1201.19 1232.72L1213.71 1238.58C1269.66 1267.31 1328.93 1295.94 1384.42 1303.04C1437.43 1309.94 1491.6 1299.23 1545.43 1271.21C1642.67 1221.16 1719.39 1135.97 1745.65 1048.89C1750.58 1032.42 1752.83 1016.42 1752.36 1001.31C1750.52 942.871 1708.14 900.704 1666.93 867.167C1643.21 845.446 1594.96 802.103 1538.06 755.665C1492.73 716.755 1440.87 676.392 1368.89 644.726C1293.93 614.059 1231.89 606.614 1173.63 621.302C1120.21 633.431 1064.17 662.893 1007.05 708.874C902.027 789.114 833.329 876.982 813.598 956.295C809.86 971.282 808.183 985.779 808.61 999.388ZM1753.56 1001.26C1754.04 1016.43 1751.77 1032.51 1746.83 1049.04C1720.5 1136.33 1643.59 1221.73 1546.11 1271.9C1492 1300.07 1437.51 1310.84 1384.17 1303.9C1328.44 1296.76 1269.05 1268.07 1213.01 1239.3L1200.5 1233.45C1142.41 1206.24 1087.54 1180.55 1036.96 1161.4C1015.94 1153.9 995.07 1147.53 974.887 1141.36C949.255 1133.53 925.043 1126.13 903.537 1117.35C874.187 1106.16 851.012 1090.67 834.661 1071.32C817.434 1050.94 808.264 1026.75 807.406 999.438C806.978 985.774 808.664 971.216 812.415 956.174C832.192 876.693 901.005 788.661 1006.18 708.301C1063.44 662.207 1119.67 632.656 1173.28 620.48C1231.88 605.712 1294.24 613.176 1369.52 643.979C1441.66 675.712 1493.6 716.131 1538.98 755.089C1595.89 801.536 1644.15 844.891 1667.86 866.598C1709.2 900.231 1751.72 942.547 1753.56 1001.26Z" fill="#3B82F6"/>
<path d="M811.709 1002.12C813.34 1054.08 848.594 1094.47 910.979 1115.84C931.29 1122.77 953.876 1128.6 977.784 1134.77C1001.53 1140.89 1026.07 1147.23 1050.59 1155.2C1098.17 1170.68 1147 1193.31 1213.89 1230.85C1270.65 1262.68 1325.96 1291.96 1378.46 1300.67C1430.48 1309.2 1483.71 1299.92 1536.69 1273.06C1636.73 1222.19 1714.68 1135.25 1740.13 1046.17C1744.57 1030.54 1746.59 1015.32 1746.14 1000.93C1744.23 940.3 1698.36 896.857 1653.74 862.36C1646.47 856.749 1639 851.017 1631.33 845.143C1600.78 821.726 1566.16 795.187 1530.51 765.36C1522.07 758.295 1513.45 750.941 1505.12 743.826C1466.18 710.599 1425.92 676.243 1378.81 649.803C1323.26 618.645 1260.87 608.058 1203.14 619.993C1149.72 631.117 1090.89 659.776 1028.28 705.177C915.45 787.135 840.717 876.349 817.85 956.394C813.323 972.378 811.258 987.764 811.709 1002.12ZM1747.34 1000.88C1747.79 1015.33 1745.76 1030.62 1741.31 1046.32C1715.8 1135.61 1637.65 1222.76 1537.36 1273.76C1484.08 1300.77 1430.52 1310.1 1378.16 1301.51C1325.43 1292.77 1270 1263.42 1213.13 1231.54C1146.32 1194.04 1097.55 1171.44 1050.07 1155.99C1025.59 1148.03 1001.06 1141.7 977.343 1135.58C953.406 1129.41 930.797 1123.57 910.431 1116.62C879.887 1106.16 855.782 1091.33 838.777 1072.56C820.867 1052.77 811.352 1029.09 810.508 1002.17C810.055 987.749 812.131 972.298 816.671 956.25C828.059 916.393 852.37 874.11 888.933 830.572C925.204 787.383 971.806 744.997 1027.44 704.58C1090.2 659.07 1149.22 630.332 1202.85 619.162C1260.95 607.15 1323.72 617.786 1379.58 649.116C1426.77 675.607 1467.07 709.998 1506.05 743.256C1514.38 750.369 1523 757.721 1531.44 764.779C1567.06 794.6 1601.68 821.13 1632.22 844.542C1639.88 850.411 1647.36 856.15 1654.64 861.759C1699.41 896.373 1745.43 939.967 1747.34 1000.88Z" fill="#3B82F6"/>
<path d="M826.979 1002.73C828.602 1054.44 862.272 1094.23 921.792 1114.76C942.868 1122.05 966.058 1127.98 990.606 1134.25C1012.46 1139.84 1035.06 1145.62 1057.85 1152.79C1068.52 1156.17 1079.61 1160.05 1090.83 1164.32C1128.02 1178.48 1167.16 1197.06 1217.74 1224.56C1273.28 1254.65 1327.37 1282.32 1378.75 1290.36C1429.56 1298.24 1481.41 1289.07 1532.85 1263.13C1592.18 1233.24 1642.02 1191.17 1677.01 1141.46C1699.85 1109.71 1716.57 1075 1725.37 1041.1C1729.39 1026.17 1731.2 1011.58 1730.77 997.75C1729.6 960.588 1712.72 926.824 1677.65 891.5C1667.99 881.833 1656.81 871.896 1643.47 861.128C1633.07 852.618 1622.31 843.947 1610.93 834.764C1585.42 814.179 1556.5 790.855 1526.83 765.471C1522 761.31 1517.16 757.112 1512.29 752.89C1479.16 724.177 1444.91 694.482 1406.11 669.611C1396.9 663.701 1387.65 658.2 1378.62 653.267C1324.37 623.521 1263.39 613.486 1206.92 625.006C1154.24 635.799 1096.63 663.417 1035.68 707.081C994.461 736.178 957.388 768.807 925.486 804.06C903.062 828.549 883.609 853.991 867.671 879.677C851.704 905.473 840.705 930.068 833.06 957.085C828.575 972.976 826.527 988.333 826.979 1002.73ZM1731.97 997.701C1732.4 1011.59 1730.58 1026.24 1726.54 1041.23C1717.73 1075.22 1700.96 1110.01 1678.07 1141.83C1642.99 1191.67 1593.01 1233.86 1533.52 1263.83C1481.78 1289.92 1429.61 1299.13 1378.46 1291.21C1326.85 1283.13 1272.64 1255.4 1216.99 1225.25C1166.46 1197.78 1127.37 1179.23 1090.24 1165.09C1079.05 1160.83 1067.98 1156.96 1057.34 1153.58C1034.58 1146.42 1012 1140.65 990.171 1135.07C965.588 1128.78 942.375 1122.85 921.241 1115.55C861.315 1094.87 827.411 1054.82 825.778 1002.78C825.324 988.318 827.38 972.899 831.881 956.945C839.547 929.863 850.573 905.204 866.577 879.349C882.543 853.618 902.028 828.135 924.49 803.604C956.439 768.301 993.57 735.619 1034.85 706.476C1095.94 662.705 1153.74 635.014 1206.64 624.174C1263.47 612.582 1324.82 622.663 1379.37 652.571C1388.43 657.519 1397.7 663.032 1406.92 668.956C1445.79 693.867 1480.07 723.583 1513.23 752.324C1518.09 756.547 1522.94 760.746 1527.77 764.902C1557.42 790.277 1585.09 812.594 1611.84 834.179C1623.22 843.36 1633.98 852.031 1644.38 860.543C1657.74 871.334 1668.95 881.289 1678.63 890.98C1713.85 926.447 1730.8 960.358 1731.97 997.701Z" fill="#3B82F6"/>
<path d="M842.232 1003.67C843.845 1055.05 875.899 1094.18 932.49 1113.85C954.362 1121.51 978.148 1127.52 1003.33 1133.89C1023.25 1138.93 1043.85 1144.14 1064.84 1150.5C1075.19 1153.7 1086.02 1157.37 1097.01 1161.42C1133.49 1174.85 1171.77 1192.4 1221.14 1218.33C1275.37 1246.66 1328.2 1272.7 1378.39 1280.06C1427.95 1287.27 1478.35 1278.24 1528.2 1253.23C1587.01 1223.88 1634.74 1182.66 1666.24 1134.02C1687.05 1103.33 1701.63 1070.45 1709.57 1036.27C1713.17 1022.07 1714.78 1008.16 1714.37 994.918C1713.23 958.587 1697.32 925.31 1664.3 890.187C1655.22 880.649 1644.74 870.879 1632.25 860.312C1617.94 847.848 1602.7 834.917 1586.58 821.231C1566.06 803.82 1544.85 785.819 1522.34 766.089L1519.96 763.979C1484.38 732.377 1447.6 699.704 1404.77 672.96C1395.77 667.327 1386.69 662.068 1377.79 657.344C1324.89 629.041 1265.4 619.562 1210.27 630.658C1158.38 641.113 1102.04 667.654 1042.83 709.538C1002.34 737.322 967.216 768.869 935.422 805.985C914.47 829.88 896.538 854.524 880.591 881.322C866.195 905.638 856.522 928.6 848.251 958.096C843.803 973.895 841.779 989.226 842.232 1003.67ZM1715.57 994.868C1715.99 1008.17 1714.36 1022.14 1710.75 1036.39C1702.8 1070.64 1688.18 1103.61 1667.31 1134.37C1635.73 1183.14 1587.86 1224.49 1528.86 1253.93C1478.73 1279.09 1428.01 1288.17 1378.11 1280.91C1327.7 1273.51 1274.75 1247.42 1220.41 1219.03C1171.1 1193.13 1132.86 1175.6 1096.44 1162.19C1085.46 1158.15 1074.66 1154.49 1064.33 1151.3C1043.39 1144.95 1022.8 1139.74 1002.9 1134.71C977.687 1128.33 953.867 1122.31 931.937 1114.63C904.11 1104.96 882.058 1090.52 866.394 1071.71C850.377 1052.48 841.845 1029.6 841.033 1003.72C840.578 989.213 842.613 973.816 847.077 957.953C855.366 928.394 865.059 905.38 879.495 881.007C895.465 854.164 913.427 829.48 934.409 805.547C966.256 768.367 1001.46 736.761 1042.01 708.93C1101.37 666.939 1157.89 640.322 1209.98 629.828C1265.48 618.658 1325.34 628.18 1378.53 656.644C1387.45 661.382 1396.54 666.651 1405.57 672.302C1448.47 699.09 1485.29 731.794 1520.91 763.425L1523.28 765.527C1545.78 785.248 1566.99 803.25 1587.5 820.66C1603.63 834.349 1618.87 847.278 1633.19 859.745C1645.69 870.326 1656.2 880.119 1665.3 889.682C1698.45 924.945 1714.42 958.369 1715.57 994.868Z" fill="#3B82F6"/>
<path d="M857.531 1004.74C859.111 1055.09 890.388 1094.63 943.344 1113.2C966.101 1121.28 990.531 1127.37 1016.39 1133.83C1034.39 1138.32 1053 1142.96 1072.13 1148.55C1082.19 1151.57 1092.76 1155.04 1103.54 1158.87C1139.34 1171.6 1176.8 1188.16 1225.02 1212.57C1278 1239.19 1329.61 1263.65 1378.69 1270.35C1427.06 1276.91 1476.07 1268 1524.36 1243.87C1582.72 1215.01 1628.39 1174.56 1656.43 1126.9C1674.96 1097.72 1687.86 1065.65 1694.8 1031.59C1697.99 1018.11 1699.4 1004.86 1699 992.206C1697.89 956.63 1682.92 923.753 1651.92 888.734C1643.41 879.304 1633.62 869.675 1621.98 859.302C1602.27 840.949 1580.37 821.437 1557.18 800.779C1544.77 789.728 1531.94 778.301 1518.64 766.335C1484.51 734.984 1447.55 702.169 1404.1 675.763C1395.26 670.374 1386.35 665.354 1377.59 660.835C1326 633.919 1267.92 624.981 1214.05 635.671C1162.9 645.805 1107.79 671.321 1050.25 711.505C1010.13 738.29 976.846 768.817 945.511 807.589C926.344 830.501 909.37 855.094 893.609 882.791C878.922 908.766 871.449 930.427 863.498 959.067C859.081 974.827 857.074 990.191 857.531 1004.74ZM1700.2 992.156C1700.6 1004.86 1699.18 1018.17 1695.98 1031.69C1689.02 1065.83 1676.09 1097.98 1657.53 1127.22C1629.4 1175.04 1583.58 1215.62 1525.02 1244.58C1476.45 1268.84 1427.12 1277.8 1378.43 1271.2C1329.12 1264.47 1277.39 1239.96 1224.31 1213.28C1176.14 1188.89 1138.72 1172.35 1102.98 1159.65C1092.22 1155.82 1081.68 1152.36 1071.64 1149.34C1052.54 1143.77 1033.95 1139.13 1015.97 1134.64C990.067 1128.18 965.604 1122.07 942.786 1113.98C889.433 1095.27 857.92 1055.47 856.329 1004.79C855.871 990.178 857.889 974.749 862.321 958.926C870.286 930.237 877.779 908.53 892.5 882.488C908.288 854.749 925.289 830.113 944.486 807.172C975.878 768.325 1009.23 737.731 1049.44 710.89C1107.12 670.601 1162.41 645.015 1213.77 634.84C1268 624.082 1326.44 633.059 1378.32 660.129C1387.09 664.656 1396.03 669.694 1404.89 675.095C1448.43 701.552 1485.43 734.403 1519.6 765.785C1532.89 777.745 1545.72 789.173 1558.12 800.225C1581.32 820.884 1603.22 840.399 1622.92 858.752C1634.59 869.144 1644.4 878.796 1652.93 888.248C1684.06 923.403 1699.08 956.42 1700.2 992.156Z" fill="#3B82F6"/>
<path d="M871.751 1005.87C873.318 1055.8 903.01 1094.6 953.222 1112.32C976.96 1120.82 1002.08 1126.96 1028.68 1133.47C1044.75 1137.4 1061.38 1141.47 1078.6 1146.27C1088.38 1149.11 1098.7 1152.37 1109.28 1155.98C1144.45 1167.97 1181.14 1183.5 1228.28 1206.35C1277.99 1230.22 1330.54 1254.03 1378.56 1260.04C1425.79 1265.93 1473.48 1257.15 1520.29 1233.95C1578.27 1205.62 1621.93 1166.02 1646.57 1119.43C1662.83 1091.87 1674.08 1060.69 1680.03 1026.72C1682.81 1014.01 1684.02 1001.48 1683.65 989.467C1682.56 954.693 1668.52 922.25 1639.49 887.369C1631.55 878.071 1622.43 868.61 1611.61 858.437C1583.34 830.2 1550.02 799.463 1514.75 766.92C1484.39 738.114 1447.38 705.156 1403.09 679.091C1394.42 673.963 1385.66 669.187 1377.03 664.887C1326.68 639.41 1269.94 631.035 1217.26 641.311C1166.78 651.107 1112.82 675.556 1056.88 713.977C1016.83 739.892 985.31 769.362 954.659 809.539C937.035 831.601 921.45 855.409 905.608 884.459C891.191 911.128 885.44 931.991 878.154 958.411L877.689 960.107C873.286 975.821 871.291 991.218 871.751 1005.87ZM1684.85 989.417C1685.23 1001.48 1684.01 1014.06 1681.22 1026.81C1675.25 1060.84 1663.97 1092.11 1647.68 1119.72C1622.97 1166.48 1579.13 1206.23 1520.94 1234.66C1473.86 1257.99 1425.87 1266.82 1378.32 1260.89C1330.08 1254.85 1277.4 1230.99 1227.59 1207.07C1180.5 1184.24 1143.85 1168.73 1108.74 1156.76C1098.17 1153.16 1087.87 1149.9 1078.13 1147.07C1060.93 1142.28 1044.32 1138.22 1028.26 1134.29C1001.62 1127.77 976.462 1121.62 952.661 1113.09C902.054 1095.24 872.127 1056.17 870.55 1005.92C870.088 991.205 872.09 975.743 876.511 959.966L876.976 958.272C884.274 931.813 890.037 910.916 904.493 884.169C920.357 855.075 935.967 831.235 953.618 809.139C984.334 768.872 1015.94 739.333 1056.08 713.355C1112.16 674.837 1166.3 650.318 1216.99 640.478C1270.02 630.137 1327.11 638.553 1377.75 664.173C1386.39 668.485 1395.18 673.281 1403.88 678.417C1448.26 704.534 1485.31 737.537 1515.71 766.38C1550.99 798.923 1584.31 829.67 1612.58 857.916C1623.41 868.094 1632.56 877.577 1640.52 886.903C1669.67 921.918 1683.75 954.492 1684.85 989.417Z" fill="#3B82F6"/>
<path d="M887.011 1006.79C888.564 1056.27 916.609 1094.33 963.957 1111.21C988.673 1120.19 1014.43 1126.37 1041.7 1132.9C1055.81 1136.28 1070.4 1139.77 1085.61 1143.83C1095.22 1146.52 1104.99 1149.5 1115.49 1152.93C1149.9 1164.19 1185.74 1178.72 1231.68 1200.03C1280.11 1222.24 1331.32 1244.38 1378.19 1249.72C1424.17 1254.95 1470.4 1246.3 1515.6 1224.02C1573.04 1196.21 1614.6 1157.42 1635.76 1111.85C1649.93 1085.62 1659.23 1056.12 1664.21 1021.67C1666.58 1009.76 1667.59 997.967 1667.24 986.616C1666.17 952.592 1653.1 920.524 1626.11 885.701C1618.75 876.52 1610.33 867.214 1600.36 857.247C1577.05 832.041 1549.25 804.233 1510.21 767.074C1471.99 729.393 1437.52 702.325 1401.71 681.891C1393.24 677.018 1384.64 672.48 1376.17 668.395C1327.19 644.331 1271.94 636.505 1220.59 646.354C1171.6 655.689 1117.46 679.736 1064.04 715.897C1013.46 747.736 984.341 783.448 964.622 810.999C944.182 837.989 929.268 865.102 918.561 885.707C906.696 908.786 901.864 927.049 896.274 948.193C895.204 952.241 894.099 956.418 892.907 960.783C888.53 976.499 886.546 991.978 887.011 1006.79ZM1668.44 986.566C1668.8 997.963 1667.77 1009.8 1665.4 1021.75C1660.41 1056.26 1651.08 1085.83 1636.89 1112.12C1615.64 1157.86 1573.92 1196.8 1516.25 1224.72C1470.78 1247.14 1424.25 1255.84 1377.96 1250.57C1330.87 1245.2 1279.55 1223.02 1231.01 1200.76C1185.11 1179.47 1149.33 1164.96 1114.96 1153.72C1104.48 1150.29 1094.73 1147.32 1085.15 1144.64C1069.96 1140.58 1055.39 1137.09 1041.29 1133.72C1013.98 1127.17 988.176 1121 963.389 1111.99C915.654 1094.97 887.376 1056.64 885.813 1006.84C885.346 991.964 887.335 976.421 891.733 960.645C892.923 956.282 894.026 952.107 895.099 948.064C900.7 926.878 905.536 908.582 917.441 885.434C928.164 864.798 943.096 837.647 963.565 810.617C983.331 783.003 1012.53 747.202 1063.25 715.268C1116.81 679.012 1171.12 654.894 1220.32 645.523C1272.01 635.604 1327.61 643.471 1376.86 667.675C1385.35 671.772 1393.98 676.322 1402.48 681.207C1438.36 701.693 1472.91 728.804 1511.18 766.547C1550.24 803.713 1578.04 831.528 1601.35 856.74C1611.33 866.715 1619.78 876.045 1627.15 885.252C1654.25 920.209 1667.37 952.4 1668.44 986.566Z" fill="#3B82F6"/>
<path d="M902.286 1008.09C903.798 1056.27 930.915 1094.46 974.819 1110.25C1000.59 1119.73 1027.02 1125.88 1055 1132.39C1067.16 1135.22 1079.72 1138.14 1092.9 1141.48C1102.2 1143.98 1111.71 1146.76 1122.01 1149.97C1155.27 1160.34 1191.35 1174.25 1235.55 1193.75C1282.75 1214.28 1332.67 1234.71 1378.48 1239.37C1423.26 1243.93 1468.1 1235.41 1511.75 1214.06C1568.73 1186.79 1608.22 1148.86 1625.96 1104.36C1638.02 1079.63 1645.48 1051.81 1649.44 1016.79C1651.41 1005.72 1652.24 994.728 1651.91 984.102C1650.86 950.831 1638.73 919.13 1613.74 884.331C1606.96 875.279 1599.23 866.134 1590.08 856.382C1567.03 829.256 1539.7 800.239 1506.52 767.658C1472.47 732.753 1436.99 705.017 1401.06 685.216C1392.77 680.607 1384.33 676.308 1375.99 672.439C1328.34 649.813 1274.51 642.548 1224.4 651.98C1176.13 660.976 1123.25 683.924 1071.49 718.342C1021.72 748.749 994.649 783.208 974.735 812.905C956.913 837.745 943.467 863.353 931.592 887.322C921.495 907.958 917.635 923.769 913.163 942.075C911.649 948.286 910.078 954.706 908.168 961.752C903.794 977.493 901.815 993.08 902.286 1008.09ZM1653.11 984.052C1653.44 994.724 1652.61 1005.76 1650.63 1016.85C1646.66 1051.93 1639.18 1079.81 1627.09 1104.59C1609.29 1149.28 1569.62 1187.38 1512.4 1214.77C1468.48 1236.25 1423.36 1244.81 1378.27 1240.23C1332.25 1235.54 1282.21 1215.06 1234.9 1194.49C1190.74 1175.01 1154.71 1161.12 1121.5 1150.76C1111.22 1147.56 1101.72 1144.79 1092.46 1142.29C1079.31 1138.96 1066.75 1136.04 1054.6 1133.21C1026.57 1126.69 1000.1 1120.53 974.249 1111.02C951.586 1102.87 933.607 1089.37 920.816 1070.89C908.646 1053.31 901.824 1031.61 901.088 1008.14C900.615 993.067 902.6 977.414 906.993 961.616C908.902 954.574 910.469 948.158 911.983 941.954C916.464 923.609 920.331 907.765 930.465 887.061C942.356 863.058 955.82 837.421 973.666 812.542C993.632 782.771 1020.78 748.212 1070.71 717.71C1122.6 683.202 1175.67 660.182 1224.14 651.148C1274.58 641.652 1328.75 648.955 1376.67 671.714C1385.03 675.593 1393.5 679.907 1401.81 684.527C1437.83 704.376 1473.4 732.175 1507.51 767.136C1540.7 799.735 1568.05 828.77 1591.1 855.897C1600.25 865.657 1608 874.829 1614.8 883.908C1639.89 918.832 1652.06 950.648 1653.11 984.052Z" fill="#3B82F6"/>
<path d="M917.565 1009.26C919.059 1056.84 944.529 1094.17 985.696 1109.11C1012.56 1119.14 1038.4 1124.95 1068.31 1131.67C1078.53 1133.97 1089.1 1136.34 1100.2 1139.01C1109.22 1141.33 1118.48 1143.91 1128.53 1146.89C1161.09 1156.53 1196.32 1169.41 1239.42 1187.4C1285.38 1206.27 1334 1225.02 1378.75 1229.01C1422.35 1232.9 1465.79 1224.52 1507.88 1204.08C1564.39 1177.33 1601.82 1140.21 1616.12 1096.73C1628.86 1067.22 1632.71 1035.79 1634.65 1011.69C1636.23 1001.51 1636.88 991.367 1636.57 981.516C1635.55 948.924 1624.35 917.497 1601.33 882.608C1595.14 873.674 1588.09 864.682 1579.78 855.133C1557.63 826.493 1532.45 797.921 1502.81 767.767C1472.01 734.811 1436.59 707.227 1400.39 687.982C1392.27 683.629 1384 679.57 1375.79 675.911C1329.48 654.7 1277.06 647.984 1228.2 657.005C1168.11 667.953 1113.86 697.445 1078.93 720.248C1029.71 749.458 1004.63 782.741 984.85 814.354C968.751 838.172 957.114 862.049 944.637 888.552C935.848 907.483 932.788 921.564 929.243 937.872C927.59 945.481 925.878 953.352 923.441 962.412C919.062 978.232 917.086 993.994 917.565 1009.26ZM1637.76 981.466C1638.07 991.356 1637.43 1001.54 1635.85 1011.73C1633.9 1035.86 1630.04 1067.36 1617.27 1096.94C1602.91 1140.61 1565.3 1177.91 1508.52 1204.79C1466.18 1225.35 1422.46 1233.79 1378.56 1229.87C1333.6 1225.86 1284.86 1207.06 1238.79 1188.15C1195.74 1170.17 1160.55 1157.32 1128.05 1147.68C1118 1144.71 1108.76 1142.14 1099.77 1139.82C1088.7 1137.16 1078.13 1134.79 1067.92 1132.49C1037.95 1125.76 1012.07 1119.94 985.123 1109.88C943.574 1094.8 917.872 1057.2 916.368 1009.31C915.886 993.979 917.871 978.155 922.267 962.274C924.699 953.231 926.406 945.37 928.059 937.767C931.613 921.419 934.682 907.303 943.502 888.306C955.994 861.767 967.648 837.865 983.769 814.012C1003.6 782.31 1028.77 748.922 1078.17 719.606C1113.18 696.742 1167.61 667.167 1227.94 656.166C1277.13 647.089 1329.87 653.839 1376.45 675.175C1384.69 678.845 1392.99 682.921 1401.13 687.284C1437.43 706.581 1472.94 734.238 1503.8 767.264C1533.46 797.43 1558.65 826.025 1580.82 854.677C1589.13 864.23 1596.2 873.243 1602.42 882.208C1625.5 917.214 1636.73 948.753 1637.76 981.466Z" fill="#3B82F6"/>
<path d="M931.81 1011C933.283 1057.91 957.113 1094.35 995.554 1108.48C1023.52 1119.07 1049.93 1124.77 1080.51 1131.37C1088.84 1133.17 1097.44 1135.02 1106.47 1137.06C1115.19 1139.21 1124.2 1141.59 1134.03 1144.35C1165.86 1153.27 1200.24 1165.12 1242.25 1181.63C1286.95 1198.87 1334.25 1215.97 1377.97 1219.28C1420.37 1222.52 1462.43 1214.25 1502.95 1194.71C1558.98 1168.46 1594.34 1132.12 1605.21 1089.62C1614.46 1064.66 1617.33 1038.55 1618.78 1007.02C1619.98 997.796 1620.45 988.57 1620.17 979.574C1619.16 947.58 1608.89 916.312 1587.85 881.173C1582.24 872.337 1575.88 863.492 1568.39 854.141C1547.76 824.491 1524.74 796.335 1498.01 768.044C1469.75 736.338 1435.39 709.639 1398.64 690.824C1390.7 686.72 1382.59 682.896 1374.53 679.451C1329.55 659.624 1278.56 653.447 1230.94 662.065C1171.75 672.606 1119.09 700.611 1085.33 722.25C1039.17 748.886 1015.41 778.989 993.941 815.991C979.444 838.881 969.12 862.062 958.19 886.604L956.658 890.046C948.887 907.747 946.507 920.557 943.755 935.392C942.169 943.934 940.532 952.766 937.695 963.41C933.299 979.382 931.32 995.393 931.81 1011ZM1621.36 979.524C1621.65 988.553 1621.18 997.811 1619.97 1007.04C1618.52 1038.61 1615.65 1064.78 1606.38 1089.78C1595.45 1132.49 1559.9 1169.03 1503.59 1195.42C1462.82 1215.08 1420.5 1223.4 1377.81 1220.14C1333.87 1216.81 1286.45 1199.67 1241.65 1182.4C1199.68 1165.9 1165.34 1154.06 1133.57 1145.15C1123.75 1142.4 1114.75 1140.02 1106.06 1137.88C1097.05 1135.85 1088.45 1133.99 1080.13 1132.2C1049.5 1125.58 1023.04 1119.88 994.974 1109.25C956.16 1094.98 932.096 1058.27 930.613 1011.05C930.121 995.382 932.109 979.307 936.518 963.274C939.348 952.659 940.985 943.841 942.567 935.31C945.328 920.434 947.714 907.583 955.514 889.813L957.054 886.366C967.993 861.797 978.329 838.592 992.848 815.673C1014.39 778.55 1038.23 748.338 1084.58 721.6C1118.42 699.909 1171.26 671.816 1230.69 661.227C1278.62 652.558 1329.93 658.765 1375.17 678.709C1383.26 682.163 1391.4 686.001 1399.35 690.118C1436.23 708.989 1470.69 735.766 1499.02 767.552C1525.77 795.863 1548.81 824.05 1569.45 853.713C1576.93 863.066 1583.32 871.934 1588.95 880.798C1610.05 916.053 1620.35 947.418 1621.36 979.524Z" fill="#3B82F6"/>
<path d="M947.095 1012.79C948.54 1058.79 970.734 1094.18 1006.47 1107.45C1035.5 1118.59 1062.41 1124.09 1093.57 1130.47C1100.06 1131.8 1106.78 1133.17 1113.8 1134.65C1122.23 1136.62 1130.98 1138.79 1140.59 1141.32C1171.65 1149.5 1205.19 1160.29 1246.12 1175.29C1289.55 1190.85 1335.52 1206.26 1378.24 1208.89C1419.46 1211.45 1460.11 1203.32 1499.06 1184.71C1554.61 1159.01 1587.9 1123.53 1595.36 1082.1C1602.81 1057.75 1603.65 1032.54 1603.98 1002.12C1604.82 993.99 1605.11 985.834 1604.86 977.841C1603.87 946.441 1594.53 915.284 1575.44 879.79C1570.41 871.071 1564.74 862.391 1558.08 853.267C1539.32 822.975 1518.45 795.295 1494.29 768.632C1468.76 738.544 1434.56 712.102 1397.96 694.159C1390.21 690.315 1382.26 686.731 1374.34 683.508C1330.72 665.113 1281.15 659.498 1234.77 667.694C1176.47 677.809 1125.4 704.277 1092.82 724.701C1046.92 750.391 1024.16 780.531 1004.11 817.882C992.039 838.287 983.421 858.923 974.298 880.772C972.797 884.363 971.287 887.979 969.745 891.633C962.795 908.381 960.931 920.761 958.96 933.864C957.584 942.996 956.164 952.438 953.012 964.34C948.584 980.498 946.592 996.796 947.095 1012.79ZM1606.06 977.791C1606.31 985.81 1606.01 993.996 1605.17 1002.12C1604.84 1032.57 1604 1057.82 1596.54 1082.22C1589.04 1123.87 1555.55 1159.58 1499.7 1185.43C1460.5 1204.15 1419.59 1212.33 1378.1 1209.75C1335.17 1207.1 1289.09 1191.66 1245.55 1176.07C1204.66 1161.08 1171.16 1150.29 1140.14 1142.13C1130.55 1139.61 1121.81 1137.43 1113.4 1135.48C1106.41 1134 1099.69 1132.63 1093.2 1131.3C1061.98 1124.91 1035.02 1119.39 1005.89 1108.21C969.781 1094.81 947.354 1059.15 945.899 1012.84C945.394 996.784 947.392 980.421 951.836 964.206C954.976 952.342 956.397 942.916 957.77 933.803C959.748 920.658 961.619 908.239 968.602 891.413C970.142 887.756 971.654 884.143 973.152 880.553C982.287 858.679 990.913 838.015 1003 817.583C1023.12 780.103 1045.98 749.846 1092.08 724.048C1124.73 703.573 1175.98 677.016 1234.52 666.857C1281.21 658.608 1331.09 664.254 1374.96 682.757C1382.91 685.986 1390.88 689.585 1398.66 693.447C1435.38 711.449 1469.7 737.979 1495.31 768.157C1519.49 794.846 1540.39 822.562 1559.16 852.868C1565.81 861.993 1571.51 870.694 1576.55 879.447C1595.7 915.042 1605.07 946.29 1606.06 977.791Z" fill="#3B82F6"/>
<path d="M962.388 1014.56C963.823 1060.22 983.882 1093.65 1017.42 1106.26C1047.42 1117.94 1073.4 1122.93 1106.3 1129.25C1111.08 1130.17 1116.02 1131.12 1121.14 1132.12C1129.3 1133.91 1137.81 1135.89 1147.15 1138.18C1177.42 1145.61 1210.1 1155.37 1250 1168.89C1290.27 1182.18 1336.74 1196.53 1378.49 1198.47C1418.52 1200.37 1457.76 1192.36 1495.15 1174.68C1550.19 1149.5 1581.41 1114.84 1585.45 1074.44C1590.67 1052.28 1590.02 1028.71 1589.31 1003.75L1589.12 996.988C1589.63 990.127 1589.78 983.22 1589.56 976.427C1588.59 945.47 1580.15 914.208 1562.98 878.046C1558.54 869.432 1553.55 860.904 1547.71 852.003C1530.81 820.79 1512.64 794.338 1490.51 768.739C1467.17 739.672 1434.05 714.175 1397.26 696.932C1389.68 693.34 1381.9 689.99 1374.11 686.985C1331.86 669.999 1283.73 664.932 1238.57 672.716C1181.17 682.41 1131.7 707.372 1100.31 726.607C1049.53 754.199 1029.98 787.534 1014.3 819.31C1004.2 837.724 997.025 856.323 989.426 876.007C987.291 881.543 985.128 887.148 982.867 892.838C976.598 908.876 975.305 920.429 973.933 932.661C972.87 942.173 971.766 952.008 968.363 964.961C963.943 981.17 961.877 998.322 962.388 1014.56ZM1590.76 976.377C1590.97 983.191 1590.83 990.121 1590.32 996.974L1590.51 1003.71C1591.21 1028.71 1591.87 1052.32 1586.64 1074.52C1582.57 1115.16 1551.15 1150.06 1495.77 1175.4C1458.17 1193.19 1418.67 1201.24 1378.37 1199.33C1336.42 1197.38 1289.84 1183 1249.46 1169.67C1209.6 1156.16 1176.96 1146.42 1146.73 1139C1137.4 1136.71 1128.91 1134.73 1120.77 1132.95C1115.67 1131.95 1110.74 1131 1105.95 1130.08C1072.98 1123.75 1046.94 1118.75 1016.83 1107.02C982.921 1094.27 962.638 1060.59 961.193 1014.61C960.68 998.31 962.754 981.093 967.188 964.827C970.579 951.925 971.679 942.11 972.742 932.618C974.116 920.344 975.418 908.752 981.718 892.63C983.979 886.937 986.142 881.337 988.274 875.806C995.883 856.093 1003.07 837.473 1013.18 819.039C1028.92 787.142 1048.56 753.67 1099.58 725.943C1131.05 706.661 1180.69 681.616 1238.33 671.881C1283.78 664.046 1332.21 669.142 1374.71 686.225C1382.52 689.243 1390.34 692.6 1397.93 696.207C1434.87 713.516 1468.12 739.111 1491.54 768.275C1513.7 793.911 1531.9 820.402 1548.82 851.637C1554.64 860.54 1559.65 869.083 1564.1 877.734C1581.31 913.99 1589.78 945.328 1590.76 976.377Z" fill="#3B82F6"/>
<path d="M976.652 1016.89C978.048 1061.28 996.569 1093.47 1027.46 1105.21C1058.33 1117.37 1083.25 1121.79 1117.75 1127.91C1121 1128.48 1124.32 1129.07 1127.75 1129.68C1135.67 1131.29 1143.93 1133.07 1153.02 1135.13C1182.51 1141.79 1214.38 1150.5 1253.36 1162.52C1301.83 1177.04 1341.66 1186.95 1378.44 1188.06C1417.36 1189.28 1455.27 1181.41 1491.13 1164.66C1545.76 1140.03 1574.98 1106.23 1575.63 1066.91C1577.09 1057.72 1577.6 1047.68 1577.21 1035.26C1576.92 1026.27 1576.22 1017.16 1575.48 1007.51C1575.09 1002.44 1574.7 997.294 1574.35 992.064C1574.58 986.774 1574.61 981.434 1574.44 976.169C1573.46 945.097 1566.1 914.406 1550.57 876.647C1546.77 868.249 1542.33 859.655 1537.37 851.106C1522.72 819.554 1506.61 793.573 1486.67 769.318C1465.36 741.219 1433.28 716.702 1396.33 700.265C1388.9 696.92 1381.26 693.817 1373.63 691.042C1332.69 675.483 1285.91 670.978 1241.89 678.348C1185.26 687.618 1137.31 711.052 1107.06 729.076C1056.38 755.744 1038.66 787.875 1023.6 821.216C1015.12 837.952 1009.17 854.841 1002.86 872.726C1000.37 879.762 997.804 887.044 995.033 894.428C989.339 909.902 988.568 920.768 987.752 932.268C987.062 942 986.35 952.058 982.729 965.885C978.226 982.461 976.124 1000.1 976.652 1016.89ZM1578.4 1035.21C1578.79 1047.67 1578.29 1057.74 1576.82 1066.93C1576.17 1106.52 1546.75 1140.58 1491.75 1165.38C1455.68 1182.22 1417.52 1190.15 1378.35 1188.92C1341.39 1187.8 1301.46 1177.87 1252.86 1163.32C1213.92 1151.3 1182.07 1142.61 1152.63 1135.95C1143.55 1133.9 1135.3 1132.12 1127.4 1130.51C1124 1129.91 1120.67 1129.32 1117.42 1128.74C1082.84 1122.61 1057.85 1118.18 1026.87 1105.97C995.604 1094.09 976.862 1061.64 975.456 1016.94C974.926 1000.08 977.036 982.384 981.555 965.753C985.158 951.987 985.87 941.958 986.559 932.256C987.378 920.708 988.151 909.8 993.881 894.233C996.646 886.851 999.213 879.576 1001.7 872.543C1008.01 854.635 1013.98 837.723 1022.47 820.961C1037.59 787.489 1055.39 755.213 1106.35 728.403C1136.68 710.338 1184.8 686.823 1241.66 677.512C1285.96 670.097 1333.03 674.625 1374.21 690.274C1381.87 693.058 1389.53 696.173 1396.98 699.533C1434.1 716.04 1466.32 740.666 1487.72 768.879C1507.69 793.171 1523.83 819.199 1538.5 850.78C1543.45 859.319 1547.9 867.932 1551.71 876.363C1567.28 914.207 1574.66 944.969 1575.63 976.119C1575.8 981.401 1575.77 986.753 1575.55 992.027C1575.89 997.22 1576.28 1002.37 1576.67 1007.43C1577.42 1017.09 1578.12 1026.2 1578.4 1035.21Z" fill="#3B82F6"/>
<path d="M1565.16 1059.73C1565.5 1055.35 1565.58 1050.82 1565.43 1045.84C1565.06 1034.31 1563.45 1022.36 1561.74 1009.71C1560.77 1002.48 1559.75 995.004 1558.95 987.34C1558.97 984.162 1558.92 980.97 1558.83 977.813C1557.85 946.683 1551.29 915.028 1537.57 875.182C1534.36 866.853 1530.63 858.41 1526.49 850.092C1514.04 817.759 1500.46 792.939 1482.4 769.589C1463.09 742.315 1432.14 718.716 1395.24 703.121C1388 700.018 1380.54 697.149 1373.06 694.587C1333 680.212 1288.9 676.348 1245.51 683.42C1189.82 692.27 1143.55 714.215 1114.54 731.064C1064.05 756.898 1048.14 787.9 1033.88 822.815C1026.8 838.179 1021.92 853.673 1016.74 870.069C1014.1 878.412 1011.38 887.035 1008.29 895.872C1003.11 910.942 1002.84 921.254 1002.55 932.167C1002.29 942.021 1002.02 952.21 998.228 966.822C993.624 983.922 991.478 1002.21 992.029 1019.7C993.382 1062.68 1010.33 1093.58 1038.53 1104.48C1069.95 1117.09 1093.54 1120.91 1129.25 1126.7L1135.08 1127.65C1142.76 1129.09 1150.76 1130.67 1159.55 1132.5C1188.46 1138.49 1218.54 1145.94 1257.06 1156.66C1303.87 1169.26 1342.42 1177.75 1378.37 1178.23C1416.07 1178.79 1452.53 1171.04 1486.74 1155.2C1539.32 1131.74 1566.48 1099.76 1565.32 1062.71C1565.28 1061.72 1565.24 1060.73 1565.16 1059.73ZM1566.62 1045.79C1566.78 1050.79 1566.69 1055.34 1566.36 1059.71C1566.42 1060.66 1566.48 1061.66 1566.51 1062.66C1567.69 1100.04 1540.32 1132.29 1487.36 1155.92C1452.94 1171.85 1416.25 1179.65 1378.31 1179.09C1342.19 1178.61 1303.54 1170.1 1256.6 1157.47C1218.1 1146.75 1188.06 1139.31 1159.18 1133.32C1150.4 1131.5 1142.41 1129.92 1134.76 1128.48L1128.95 1127.54C1093.14 1121.73 1069.49 1117.9 1037.93 1105.24C1009.36 1094.2 992.197 1063.04 990.835 1019.75C990.283 1002.2 992.434 983.848 997.057 966.688C1000.82 952.151 1001.09 941.999 1001.35 932.183C1001.64 921.215 1001.92 910.859 1007.13 895.692C1010.22 886.865 1012.94 878.247 1015.57 869.906C1020.76 853.486 1025.66 837.973 1032.75 822.586C1046.54 788.816 1063.12 756.34 1113.84 730.386C1142.92 713.496 1189.36 691.47 1245.29 682.578C1288.94 675.466 1333.32 679.354 1373.61 693.81C1381.11 696.379 1388.61 699.261 1395.87 702.373C1432.95 718.048 1464.06 741.767 1483.46 769.165C1501.55 792.559 1515.17 817.439 1527.62 849.802C1531.77 858.113 1535.5 866.578 1538.72 874.934C1552.47 914.858 1559.04 946.567 1560.02 977.763C1560.12 980.927 1560.16 984.129 1560.14 987.279C1560.94 994.901 1561.95 1002.37 1562.93 1009.6C1564.64 1022.26 1566.25 1034.22 1566.62 1045.79Z" fill="#3B82F6"/>
<path d="M1006.37 1022.54C1007.67 1063.79 1023.11 1093.22 1048.71 1103.27C1080.51 1116.21 1102.62 1119.41 1139.24 1124.72L1141.75 1125.08C1149.23 1126.36 1156.98 1127.74 1165.46 1129.32C1193.34 1134.52 1222.61 1140.97 1260.37 1150.22C1299.49 1159.46 1340.84 1167.97 1378.17 1167.79C1414.74 1167.66 1449.83 1160.04 1482.48 1145.14C1531.56 1123.52 1556.94 1094.4 1555.89 1060.92C1555.79 1058.01 1555.5 1055.02 1555.01 1052.04C1555 1051.39 1554.98 1050.78 1554.96 1050.16C1554.56 1037.48 1551.85 1024.13 1548.97 1010C1547.16 1001.07 1545.28 991.836 1543.85 982.172C1542.51 941.951 1533.49 904.614 1524.85 873.392C1522.22 865.128 1519.19 856.841 1515.83 848.776C1509.13 826.833 1498.81 798.031 1478.29 769.651C1461.1 743.559 1430.42 720.309 1394.11 705.845C1387.04 702.994 1379.74 700.362 1372.39 698.027C1333.75 685.068 1291 681.745 1248.76 688.402C1193.86 696.836 1149.17 717.279 1121.35 732.944C1070.99 757.921 1056.22 789.057 1043.31 824.221C1037.41 838.389 1033.44 852.666 1029.24 867.781C1026.62 877.211 1023.91 886.961 1020.61 897.049C1015.89 911.789 1016.09 921.617 1016.3 932.021C1016.5 941.901 1016.71 952.122 1012.77 967.415C1008.08 984.939 1005.81 1004.51 1006.37 1022.54ZM1557.08 1060.87C1558.14 1094.69 1532.55 1124.07 1483.08 1145.86C1450.25 1160.85 1414.94 1168.52 1378.13 1168.65C1340.64 1168.83 1299.18 1160.29 1259.95 1151.04C1222.22 1141.79 1192.97 1135.35 1165.12 1130.16C1156.65 1128.58 1148.91 1127.19 1141.45 1125.92L1138.97 1125.56C1102.23 1120.24 1080.06 1117.02 1048.11 1104.02C1022.14 1093.83 1006.49 1064.15 1005.18 1022.59C1004.61 1004.5 1006.89 984.864 1011.6 967.284C1015.51 952.082 1015.3 941.905 1015.11 932.064C1014.89 921.605 1014.69 911.729 1019.45 896.879C1022.74 886.806 1025.45 877.066 1028.07 867.642C1032.28 852.508 1036.25 838.213 1042.16 824.015C1055.13 788.692 1069.98 757.395 1120.66 732.254C1148.56 716.548 1193.42 696.031 1248.54 687.566C1291.04 680.867 1334.05 684.213 1372.92 697.238C1380.28 699.586 1387.62 702.227 1394.72 705.096C1431.23 719.632 1462.08 743.016 1479.36 769.247C1499.94 797.697 1510.28 826.568 1516.99 848.536C1520.34 856.584 1523.38 864.887 1526.01 873.184C1534.67 904.452 1543.7 941.835 1545.05 982.085C1546.46 991.699 1548.34 1000.92 1550.16 1009.85C1553.18 1024.69 1556.02 1038.67 1556.2 1051.96C1556.69 1054.91 1556.99 1057.93 1557.08 1060.87Z" fill="#3B82F6"/>
<path d="M1021.83 1026.37C1022.56 1049.42 1028.49 1089.96 1060.07 1102.55C1091.96 1115.73 1112.37 1118.32 1149.44 1123.01C1156.91 1124.14 1164.41 1125.33 1172.5 1126.66C1206.52 1132.27 1239.68 1139.03 1264.77 1144.29C1302.44 1151.86 1342.36 1158.75 1379.01 1157.86C1414.47 1157.05 1448.19 1149.56 1479.23 1135.58C1525.12 1115.64 1548.87 1089.09 1547.92 1058.79C1547.77 1054.25 1547.08 1049.57 1545.85 1044.88C1544.59 1033.72 1541.29 1022.04 1537.8 1009.67C1534.91 999.439 1531.92 988.862 1529.75 977.536C1527.15 943.995 1521.22 911.15 1513.12 872.143C1511.1 863.916 1508.76 855.79 1506.19 848.008C1500.9 824.537 1493.07 796.978 1475.19 770.267C1459.79 744.905 1430.21 722.629 1394.03 709.136C1387.14 706.532 1380 704.136 1372.78 702.019C1335.6 690.49 1294.22 687.699 1253.1 693.948C1198.99 701.955 1155.91 720.894 1129.3 735.375C1078.99 759.569 1065.86 789.522 1053.91 826.165C1049.04 839.303 1045.88 852.523 1042.54 866.522C1040.07 876.875 1037.51 887.578 1034.12 898.754C1030.75 910.075 1030.5 918.172 1030.71 924.599C1030.79 927.304 1030.97 929.874 1031.16 932.599C1031.35 935.292 1031.54 938.087 1031.63 940.99C1031.83 947.314 1031.65 956.162 1028.49 968.533C1023.6 986.926 1021.24 1007.47 1021.83 1026.37ZM1549.11 1058.74C1550.08 1089.38 1526.12 1116.2 1479.82 1136.31C1449.04 1150.17 1414.18 1157.92 1379.01 1158.72C1342.19 1159.61 1302.17 1152.71 1264.41 1145.12C1239.33 1139.86 1206.19 1133.1 1172.19 1127.5C1164.11 1126.17 1156.62 1124.98 1149.29 1123.87C1112 1119.15 1091.51 1116.55 1059.46 1103.31C1027.39 1090.52 1021.37 1049.64 1020.64 1026.42C1020.04 1007.45 1022.41 986.852 1027.32 968.402C1030.46 956.111 1030.64 947.325 1030.44 941.039C1030.35 938.146 1030.15 935.365 1029.96 932.67C1029.78 930.063 1029.6 927.365 1029.51 924.649C1029.31 918.17 1029.55 910.015 1032.95 898.601C1036.34 887.444 1038.9 876.747 1041.36 866.401C1044.71 852.389 1047.87 839.147 1052.76 825.985C1064.76 789.159 1077.97 759.043 1128.63 734.677C1155.31 720.158 1198.57 701.148 1252.9 693.106C1294.25 686.821 1335.88 689.626 1373.28 701.226C1380.52 703.346 1387.69 705.754 1394.61 708.371C1431.02 721.949 1460.79 744.369 1476.27 769.887C1494.22 796.681 1502.06 824.315 1507.36 847.809C1509.93 855.583 1512.26 863.722 1514.3 871.975C1522.41 911.018 1528.34 943.886 1530.94 977.423C1533.1 988.689 1536.08 999.251 1538.97 1009.47C1542.47 1021.86 1545.78 1033.57 1547.03 1044.73C1548.26 1049.43 1548.97 1054.15 1549.11 1058.74Z" fill="#3B82F6"/>
<path d="M1036.26 1030.49C1037.44 1067.93 1049.61 1093.23 1070.52 1101.72C1102.24 1115.04 1121.53 1117.11 1156.53 1120.87C1163.86 1121.83 1171.12 1122.82 1178.73 1123.9C1209.91 1128.33 1240.28 1133.43 1268.44 1138.29C1302.9 1143.94 1343.02 1149.5 1379.23 1147.87C1413.14 1146.39 1446.4 1138.81 1475.44 1125.95C1519.09 1107.24 1540.77 1083.62 1539.89 1055.73C1539.71 1049.83 1538.47 1043.71 1536.21 1037.53C1534.14 1028.18 1530.51 1018.45 1526.67 1008.15C1522.5 996.949 1518.18 985.363 1515.16 972.636C1512.63 952.859 1509.83 933.327 1506.85 912.647C1504.87 898.945 1502.84 884.778 1500.88 870.509C1499.47 862.264 1497.83 854.293 1496.03 846.819C1492.43 822 1486.97 795.588 1471.54 770.382C1457.87 745.679 1429.36 724.35 1393.33 711.855C1386.61 709.489 1379.62 707.329 1372.54 705.436C1336.82 695.312 1296.76 693.051 1256.7 698.9C1203.3 706.499 1161.81 723.952 1136.4 737.26C1086.07 760.721 1074.48 789.533 1063.6 827.67C1059.62 839.905 1057.18 852.217 1054.6 865.247C1052.39 876.406 1050.1 887.946 1046.7 900.109C1044.63 907.632 1043.77 914.408 1043.99 921.421C1044.11 925.463 1044.56 929.131 1045.03 933.011C1045.51 936.891 1046 940.909 1046.14 945.337C1046.38 953.097 1045.48 960.735 1043.28 969.37C1038.2 988.634 1035.64 1010.91 1036.26 1030.49ZM1541.09 1055.68C1541.98 1083.91 1520.09 1107.8 1476.02 1126.68C1446.83 1139.62 1413.36 1147.24 1379.26 1148.73C1342.9 1150.37 1302.68 1144.79 1268.12 1139.13C1239.97 1134.27 1209.62 1129.17 1178.46 1124.74C1170.85 1123.66 1163.6 1122.67 1156.29 1121.71C1121.16 1117.94 1101.8 1115.86 1069.9 1102.47C1048.63 1093.83 1036.26 1068.28 1035.07 1030.54C1034.45 1010.9 1037.01 988.561 1042.11 969.24C1044.28 960.668 1045.19 953.088 1044.95 945.386C1044.81 940.989 1044.32 936.985 1043.85 933.115C1043.37 929.222 1042.92 925.54 1042.79 921.471C1042.57 914.391 1043.44 907.56 1045.53 899.97C1048.92 887.83 1051.21 876.303 1053.42 865.159C1056 852.104 1058.45 839.776 1062.43 827.513C1073.38 789.175 1085.04 760.198 1135.75 736.556C1161.23 723.213 1202.89 705.688 1256.51 698.062C1296.79 692.178 1337.07 694.451 1373.01 704.632C1380.1 706.532 1387.13 708.702 1393.88 711.074C1430.17 723.664 1458.88 745.147 1472.65 770.024C1488.13 795.323 1493.61 821.814 1497.22 846.672C1499.01 854.129 1500.65 862.115 1502.07 870.384C1504.02 884.664 1506.07 898.834 1508.04 912.526C1511.01 933.211 1513.83 952.745 1516.34 972.496C1519.35 985.151 1523.66 996.716 1527.83 1007.9C1531.67 1018.23 1535.31 1027.98 1537.38 1037.32C1539.65 1043.52 1540.9 1049.71 1541.09 1055.68Z" fill="#3B82F6"/>
</svg>
