<svg xmlns="http://www.w3.org/2000/svg"  viewBox="0 0 4335 4335" width="67px" fill="#1e3a8a" height="67px" fill-rule="evenodd" clip-rule="evenodd" image-rendering="optimizeQuality" shape-rendering="geometricPrecision" text-rendering="geometricPrecision"><path d="M246 314l47 -47c215,-215 566,-215 781,0l1090 1090 1090 -1090c215,-215 566,-215 781,0l47 47c215,215 215,566 0,781l-1090 1090 1090 1090c215,215 215,566 0,781l-47 47c-215,215 -566,215 -781,0l-1090 -1090 -1090 1090c-215,215 -566,215 -781,0l-47 -47c-215,-215 -215,-566 0,-781l1090 -1090 -1090 -1090c-215,-215 -215,-566 0,-781z"/></svg>